<svg id="_x31__x2C_5" height="512" viewBox="0 0 24 24" width="512" xmlns="http://www.w3.org/2000/svg"><path d="m5.75 6.75 2 9.5h13.5l1.746-8.294c.131-.622-.343-1.206-.979-1.206z" fill="#cfd8dc"/><path d="m18.5.75-4.75 4.75h3v5.25c0 .28.22.5.5.5h2.5c.28 0 .5-.22.5-.5v-5.25h3z" fill="#00bcd4"/><path d="m19.75 12h-2.5c-.689 0-1.25-.561-1.25-1.25v-4.5h-2.25c-.303 0-.577-.183-.693-.463s-.052-.603.163-.817l4.75-4.75c.293-.293.768-.293 1.061 0l4.75 4.75c.214.214.279.537.163.817s-.391.463-.694.463h-2.25v4.5c0 .689-.561 1.25-1.25 1.25zm-2.25-1.5h2v-5c0-.414.336-.75.75-.75h1.189l-2.939-2.939-2.939 2.939h1.189c.414 0 .75.336.75.75z"/><path d="m21.25 17h-13.5c-.354 0-.661-.249-.734-.596l-2-9.5c-.046-.221.009-.451.151-.627.143-.175.357-.277.583-.277h5.875c.414 0 .75.336.75.75s-.336.75-.75.75h-4.951l1.684 8h12.283l.466-2.216c.085-.406.485-.667.888-.58.405.085.665.483.58.888l-.592 2.812c-.072.347-.379.596-.733.596z"/><path d="m7.749 17c-.347 0-.659-.242-.733-.596l-2.505-11.901c-.121-.572-.633-.989-1.218-.992l-2.546-.011c-.414-.002-.749-.339-.747-.753s.337-.747.75-.747h.003l2.546.011c1.287.005 2.414.923 2.679 2.183l2.505 11.901c.085.405-.174.803-.58.888-.05.012-.103.017-.154.017z"/><path d="m21.25 20h-15c-1.241 0-2.25-1.009-2.25-2.25s1.009-2.25 2.25-2.25h1.5c.414 0 .75.336.75.75s-.336.75-.75.75h-1.5c-.414 0-.75.336-.75.75s.336.75.75.75h15c.414 0 .75.336.75.75s-.336.75-.75.75z"/><circle cx="10.5" cy="22.5" r="1.5"/><circle cx="18.5" cy="22.5" r="1.5"/></svg>